<svg width="591" height="289" viewBox="0 0 591 289" fill="none" xmlns="http://www.w3.org/2000/svg">
<path d="M188.2 193C184.92 193 182.4 192.28 180.64 190.84C178.96 189.4 178.08 187.96 178 186.52L177.88 184.48V146.8C177.88 140.48 176.2 136.44 172.84 134.68C171.24 133.88 169.2 133.48 166.72 133.48C161.76 133.48 157.28 135.52 153.28 139.6C149.36 143.6 147.4 147.2 147.4 150.4V193H139V103.12H147.4V146.68C148.68 143.24 151.12 140.04 154.72 137.08C158.32 134.04 162.36 132.52 166.84 132.52C174.6 132.52 179.76 133.88 182.32 136.6C184.96 139.24 186.28 142.68 186.28 146.92V184.48C186.28 186.8 186.72 188.6 187.6 189.88C188.56 191.08 189.48 191.72 190.36 191.8L191.8 192.04H195.52V193H188.2ZM202.136 103.12H210.536V147.88C211.896 144.2 214.416 140.72 218.096 137.44C221.776 134.16 225.936 132.52 230.576 132.52C246.816 132.52 254.936 142.04 254.936 161.08C254.936 182.68 244.456 193.48 223.496 193.48C217.336 193.48 210.216 192.48 202.136 190.48V103.12ZM230.456 133.48C225.496 133.48 221.016 135.64 217.016 139.96C213.016 144.2 210.856 148.04 210.536 151.48V189.76C215.416 191.6 219.696 192.52 223.376 192.52C238.816 192.52 246.536 182 246.536 160.96C246.536 142.64 241.176 133.48 230.456 133.48Z" fill="black"/>
<path d="M314.28 193C311 193 308.48 192.28 306.72 190.84C305.04 189.4 304.16 187.96 304.08 186.52L303.96 184.48V146.8C303.96 140.48 302.32 136.44 299.04 134.68C297.36 133.88 295.28 133.48 292.8 133.48C287.68 133.48 283.08 135.52 279 139.6C274.92 143.6 272.88 147.2 272.88 150.4V193H264.48V133H272.88V146.68C274.24 143.24 276.76 140.04 280.44 137.08C284.12 134.04 288.16 132.52 292.56 132.52C296.96 132.52 300.52 132.96 303.24 133.84C306.04 134.64 308.08 135.8 309.36 137.32C311.36 139.8 312.36 143 312.36 146.92V184.48C312.36 186.8 312.8 188.6 313.68 189.88C314.64 191.08 315.6 191.72 316.56 191.8L317.88 192.04H321.6V193H314.28ZM334.632 163.72C334.632 173.64 336.352 180.92 339.792 185.56C343.312 190.2 347.912 192.52 353.592 192.52C361.592 192.52 368.712 191.32 374.952 188.92L375.312 189.76C368.912 192.24 361.672 193.48 353.592 193.48C345.592 193.48 339.072 191.08 334.032 186.28C328.992 181.48 326.472 174.08 326.472 164.08C326.472 154.08 329.112 146.32 334.392 140.8C339.672 135.28 346.392 132.52 354.552 132.52C361.112 132.52 366.632 134.48 371.112 138.4C375.592 142.32 377.832 148.12 377.832 155.8C377.832 156.2 377.832 156.6 377.832 157H334.992C334.752 159.16 334.632 161.4 334.632 163.72ZM369.672 156.04C369.592 148.36 368.112 142.68 365.232 139C362.352 135.32 358.632 133.48 354.072 133.48C349.512 133.48 345.432 135.48 341.832 139.48C338.312 143.48 336.072 149 335.112 156.04H369.672ZM467.863 133.72L468.583 133C468.903 133.16 469.303 133.64 469.783 134.44C470.343 135.24 470.663 135.96 470.743 136.6C470.903 137.24 470.983 137.84 470.983 138.4C470.983 140.56 470.503 142.76 469.543 145L447.703 193H446.503L429.223 146.56L408.103 193H406.903L384.583 133H392.983L411.343 182.68L428.623 145.12L424.183 133H432.583L450.943 182.68L468.343 145C469.303 143.32 469.783 141.32 469.783 139C469.783 136.68 469.143 134.92 467.863 133.72ZM515.028 137.2C513.748 136.16 511.668 135.28 508.788 134.56C505.988 133.84 503.868 133.48 502.428 133.48C500.988 133.48 500.148 133.48 499.908 133.48C495.588 133.56 492.468 134.68 490.548 136.84C488.628 138.92 487.668 141.28 487.668 143.92C487.668 146.56 488.508 148.8 490.188 150.64C491.868 152.4 493.948 153.8 496.428 154.84C498.988 155.8 501.708 156.92 504.588 158.2C507.548 159.48 510.268 160.8 512.748 162.16C515.308 163.44 517.428 165.36 519.108 167.92C520.788 170.4 521.628 173.52 521.628 177.28C521.628 181.04 520.308 184.24 517.668 186.88C515.028 189.52 512.068 191.28 508.788 192.16C505.588 193.04 502.108 193.48 498.348 193.48C490.188 193.48 484.068 191.68 479.988 188.08L480.708 187.36C482.308 188.88 484.668 190.12 487.788 191.08C490.988 192.04 494.068 192.52 497.028 192.52C501.748 192.52 505.628 191.24 508.668 188.68C511.788 186.04 513.348 182.8 513.348 178.96C513.348 175.04 512.188 171.92 509.868 169.6C507.548 167.2 504.708 165.36 501.348 164.08C498.068 162.72 494.748 161.4 491.388 160.12C488.028 158.76 485.188 156.92 482.868 154.6C480.548 152.2 479.388 149.44 479.388 146.32C479.388 143.2 480.108 140.68 481.548 138.76C482.988 136.76 484.908 135.36 487.308 134.56C491.388 133.2 495.468 132.52 499.548 132.52C506.428 132.52 511.788 133.8 515.628 136.36L515.028 137.2Z" fill="url(#paint0_linear_2_14)"/>
<path d="M539.707 206.707C540.098 206.317 540.098 205.683 539.707 205.293L533.343 198.929C532.953 198.538 532.319 198.538 531.929 198.929C531.538 199.319 531.538 199.953 531.929 200.343L537.586 206L531.929 211.657C531.538 212.047 531.538 212.681 531.929 213.071C532.319 213.462 532.953 213.462 533.343 213.071L539.707 206.707ZM139 207H539V205H139V207Z" fill="black"/>
<path d="M88.6667 130.75V212.417H27.7083C21.6125 212.417 16.625 207.167 16.625 200.75V130.75H88.6667Z" fill="#FF5722"/>
<path d="M38.7917 101.583V200.75C38.7917 207.167 33.8042 212.417 27.7083 212.417H108.062C114.158 212.417 119.146 207.167 119.146 200.75V101.583H38.7917Z" fill="#FFCCBC"/>
<path d="M55.4167 116.167H105.292V127.833H55.4167V116.167ZM55.4167 136.583H77.5833V142.417H55.4167V136.583ZM83.125 136.583H105.292V142.417H83.125V136.583ZM55.4167 148.25H77.5833V154.083H55.4167V148.25ZM83.125 148.25H105.292V154.083H83.125V148.25ZM55.4167 159.917H77.5833V165.75H55.4167V159.917ZM83.125 159.917H105.292V165.75H83.125V159.917ZM55.4167 171.583H77.5833V177.417H55.4167V171.583ZM83.125 171.583H105.292V177.417H83.125V171.583ZM55.4167 183.25H77.5833V189.083H55.4167V183.25ZM83.125 183.25H105.292V189.083H83.125V183.25ZM55.4167 194.917H77.5833V200.75H55.4167V194.917ZM83.125 194.917H105.292V200.75H83.125V194.917Z" fill="#FF5722"/>
<defs>
<linearGradient id="paint0_linear_2_14" x1="484.5" y1="82" x2="484.5" y2="320" gradientUnits="userSpaceOnUse">
<stop stop-color="#FFCCBC"/>
<stop offset="0.335" stop-color="#FF774C"/>
<stop offset="1" stop-color="#FF3D00"/>
</linearGradient>
</defs>
</svg>
